<svg width="20" height="20" viewBox="0 0 20 20" fill="none" xmlns="http://www.w3.org/2000/svg">
<path d="M10 12.2917C9.65833 12.2917 9.375 12.0083 9.375 11.6667V7.5C9.375 7.15833 9.65833 6.875 10 6.875C10.3417 6.875 10.625 7.15833 10.625 7.5V11.6667C10.625 12.0083 10.3417 12.2917 10 12.2917Z" fill="#718096"/>
<path d="M10.0001 15C9.95008 15 9.89175 14.9917 9.83341 14.9834C9.78341 14.975 9.73341 14.9584 9.68341 14.9334C9.63341 14.9167 9.58341 14.8917 9.53341 14.8584C9.49175 14.825 9.45008 14.7917 9.40841 14.7584C9.25841 14.6 9.16675 14.3834 9.16675 14.1667C9.16675 13.95 9.25841 13.7334 9.40841 13.575C9.45008 13.5417 9.49175 13.5084 9.53341 13.475C9.58341 13.4417 9.63341 13.4167 9.68341 13.4C9.73341 13.375 9.78341 13.3584 9.83341 13.35C9.94175 13.325 10.0584 13.325 10.1584 13.35C10.2167 13.3584 10.2667 13.375 10.3167 13.4C10.3667 13.4167 10.4167 13.4417 10.4667 13.475C10.5084 13.5084 10.5501 13.5417 10.5917 13.575C10.7417 13.7334 10.8334 13.95 10.8334 14.1667C10.8334 14.3834 10.7417 14.6 10.5917 14.7584C10.5501 14.7917 10.5084 14.825 10.4667 14.8584C10.4167 14.8917 10.3667 14.9167 10.3167 14.9334C10.2667 14.9584 10.2167 14.975 10.1584 14.9834C10.1084 14.9917 10.0501 15 10.0001 15Z" fill="#718096"/>
<path d="M15.05 18.4668H4.94998C3.32498 18.4668 2.08331 17.8751 1.44998 16.8084C0.82498 15.7418 0.908313 14.3668 1.69998 12.9418L6.74998 3.85845C7.58331 2.35845 8.73331 1.53345 9.99998 1.53345C11.2666 1.53345 12.4166 2.35845 13.25 3.85845L18.3 12.9501C19.0916 14.3751 19.1833 15.7418 18.55 16.8168C17.9166 17.8751 16.675 18.4668 15.05 18.4668ZM9.99998 2.78345C9.21665 2.78345 8.44998 3.38345 7.84165 4.46678L2.79998 13.5584C2.23331 14.5751 2.14165 15.5084 2.53331 16.1834C2.92498 16.8584 3.79165 17.2251 4.95831 17.2251H15.0583C16.225 17.2251 17.0833 16.8584 17.4833 16.1834C17.8833 15.5084 17.7833 14.5834 17.2166 13.5584L12.1583 4.46678C11.55 3.38345 10.7833 2.78345 9.99998 2.78345Z" fill="#718096"/>
</svg>
