<svg width="20" height="20" viewBox="0 0 20 20" fill="none" xmlns="http://www.w3.org/2000/svg">
<path d="M10 18.9583C9.35001 18.9583 8.71668 18.625 8.28335 18.0416L7.44167 16.9166C7.26667 16.6833 7.03335 16.55 6.78335 16.5333C6.53335 16.525 6.28335 16.6333 6.08335 16.8416L5.62501 16.4166L6.08335 16.8416C4.88335 18.125 3.95835 18.025 3.51668 17.85C3.06668 17.675 2.30835 17.1 2.30835 15.25V5.86663C2.30835 2.16663 3.37502 1.04163 6.86668 1.04163H13.1667C16.6583 1.04163 17.725 2.16663 17.725 5.86663V15.25C17.725 17.0916 16.9667 17.6666 16.5167 17.85C16.075 18.025 15.1583 18.125 13.95 16.8416C13.75 16.625 13.5 16.5166 13.2417 16.5333C12.9917 16.55 12.75 16.6833 12.575 16.9166L11.7333 18.0416C11.2833 18.625 10.65 18.9583 10 18.9583ZM6.73335 15.275C6.76668 15.275 6.80835 15.275 6.84168 15.275C7.45835 15.3083 8.04168 15.6333 8.43334 16.1583L9.27502 17.2833C9.68335 17.825 10.3083 17.825 10.7167 17.2833L11.5583 16.1583C11.9583 15.6333 12.5333 15.3083 13.1583 15.275C13.7833 15.2416 14.3917 15.5 14.8417 15.9833C15.475 16.6583 15.8834 16.7416 16.0333 16.6833C16.2334 16.6 16.45 16.1166 16.45 15.25V5.86663C16.45 2.85829 15.925 2.29163 13.1417 2.29163H6.84168C4.05835 2.29163 3.53335 2.85829 3.53335 5.86663V15.25C3.53335 16.125 3.75002 16.6083 3.95002 16.6833C4.09168 16.7416 4.50834 16.6583 5.14168 15.9833C5.60001 15.525 6.15835 15.275 6.73335 15.275Z" fill="#718096"/>
<path d="M12.2916 8.95837H7.70825C7.36659 8.95837 7.08325 8.67504 7.08325 8.33337C7.08325 7.99171 7.36659 7.70837 7.70825 7.70837H12.2916C12.6333 7.70837 12.9166 7.99171 12.9166 8.33337C12.9166 8.67504 12.6333 8.95837 12.2916 8.95837Z" fill="#718096"/>
</svg>
