<svg width="20" height="20" viewBox="0 0 20 20" fill="none" xmlns="http://www.w3.org/2000/svg">
<path d="M14.9999 6.59172C14.9749 6.59172 14.9583 6.59172 14.9333 6.59172H14.8916C13.3166 6.54172 12.1416 5.32505 12.1416 3.82505C12.1416 2.29172 13.3916 1.05005 14.9166 1.05005C16.4416 1.05005 17.6916 2.30005 17.6916 3.82505C17.6833 5.33338 16.5083 6.55005 15.0083 6.60005C15.0083 6.59172 15.0083 6.59172 14.9999 6.59172ZM14.9166 2.29172C14.0749 2.29172 13.3916 2.97505 13.3916 3.81672C13.3916 4.64172 14.0333 5.30839 14.8583 5.34172C14.8666 5.33339 14.9333 5.33339 15.0083 5.34172C15.8166 5.30006 16.4416 4.63339 16.4499 3.81672C16.4499 2.97505 15.7666 2.29172 14.9166 2.29172Z" fill="#369FE7"/>
<path d="M15.0083 12.7335C14.6833 12.7335 14.3583 12.7085 14.0333 12.6502C13.6916 12.5918 13.4666 12.2668 13.5249 11.9252C13.5833 11.5835 13.9083 11.3585 14.2499 11.4168C15.2749 11.5918 16.3583 11.4002 17.0833 10.9168C17.4749 10.6585 17.6833 10.3335 17.6833 10.0085C17.6833 9.68349 17.4666 9.36683 17.0833 9.10849C16.3583 8.62516 15.2583 8.4335 14.2249 8.61683C13.8833 8.6835 13.5583 8.45016 13.4999 8.1085C13.4416 7.76683 13.6666 7.44183 14.0083 7.3835C15.3666 7.14183 16.7749 7.40016 17.7749 8.06683C18.5083 8.55849 18.9333 9.25849 18.9333 10.0085C18.9333 10.7502 18.5166 11.4585 17.7749 11.9585C17.0166 12.4585 16.0333 12.7335 15.0083 12.7335Z" fill="#369FE7"/>
<path d="M4.9749 6.59163C4.96657 6.59163 4.95824 6.59163 4.95824 6.59163C3.45824 6.54163 2.28324 5.32496 2.2749 3.82496C2.2749 2.29162 3.5249 1.04163 5.0499 1.04163C6.5749 1.04163 7.8249 2.29163 7.8249 3.81663C7.8249 5.32496 6.6499 6.54163 5.1499 6.59163L4.9749 5.96663L5.03324 6.59163C5.01657 6.59163 4.99157 6.59163 4.9749 6.59163ZM5.05824 5.34163C5.10824 5.34163 5.1499 5.34162 5.1999 5.34996C5.94157 5.31662 6.59157 4.64996 6.59157 3.82496C6.59157 2.98329 5.90824 2.29995 5.06657 2.29995C4.2249 2.29995 3.54157 2.98329 3.54157 3.82496C3.54157 4.64162 4.1749 5.29996 4.98324 5.34996C4.99157 5.34162 5.0249 5.34163 5.05824 5.34163Z" fill="#369FE7"/>
<path d="M4.96675 12.7335C3.94175 12.7335 2.95841 12.4585 2.20008 11.9585C1.46675 11.4668 1.04175 10.7585 1.04175 10.0085C1.04175 9.26683 1.46675 8.55849 2.20008 8.06683C3.20008 7.40016 4.60841 7.14183 5.96675 7.3835C6.30841 7.44183 6.53342 7.76683 6.47508 8.1085C6.41675 8.45016 6.09175 8.6835 5.75008 8.61683C4.71675 8.4335 3.62508 8.62516 2.89175 9.10849C2.50008 9.36683 2.29175 9.68349 2.29175 10.0085C2.29175 10.3335 2.50842 10.6585 2.89175 10.9168C3.61675 11.4002 4.70008 11.5918 5.72508 11.4168C6.06675 11.3585 6.39175 11.5918 6.45008 11.9252C6.50842 12.2668 6.28342 12.5918 5.94175 12.6502C5.61675 12.7085 5.29175 12.7335 4.96675 12.7335Z" fill="#369FE7"/>
<path d="M9.99994 12.8167C9.97494 12.8167 9.95827 12.8167 9.93327 12.8167H9.8916C8.3166 12.7667 7.1416 11.55 7.1416 10.05C7.1416 8.51669 8.3916 7.27502 9.9166 7.27502C11.4416 7.27502 12.6916 8.52503 12.6916 10.05C12.6833 11.5584 11.5083 12.775 10.0083 12.825C10.0083 12.8167 10.0083 12.8167 9.99994 12.8167ZM9.9166 8.5167C9.07494 8.5167 8.3916 9.20003 8.3916 10.0417C8.3916 10.8667 9.03327 11.5334 9.85827 11.5667C9.8666 11.5584 9.93327 11.5584 10.0083 11.5667C10.8166 11.525 11.4416 10.8584 11.4499 10.0417C11.4499 9.20836 10.7666 8.5167 9.9166 8.5167Z" fill="#369FE7"/>
<path d="M9.99974 18.9666C8.99974 18.9666 7.99974 18.7083 7.22474 18.1833C6.49141 17.6916 6.06641 16.9916 6.06641 16.2416C6.06641 15.4999 6.48307 14.7833 7.22474 14.2916C8.78307 13.2583 11.2247 13.2583 12.7747 14.2916C13.5081 14.7833 13.9331 15.4833 13.9331 16.2333C13.9331 16.9749 13.5164 17.6916 12.7747 18.1833C11.9997 18.6999 10.9997 18.9666 9.99974 18.9666ZM7.91641 15.3416C7.52474 15.5999 7.31641 15.9249 7.31641 16.2499C7.31641 16.5749 7.53307 16.8916 7.91641 17.1499C9.04141 17.9083 10.9497 17.9083 12.0747 17.1499C12.4664 16.8916 12.6747 16.5666 12.6747 16.2416C12.6747 15.9166 12.4581 15.5999 12.0747 15.3416C10.9581 14.5833 9.04974 14.5916 7.91641 15.3416Z" fill="#369FE7"/>
</svg>
