<svg xmlns="http://www.w3.org/2000/svg" width="64.088" height="64.088" viewBox="0 0 64.088 64.088"><defs><style>.a{fill:#ffcd36;}.b{fill:#ececf1;}.c{fill:#fedb41;}.d{fill:#e3e3e5;}</style></defs><g transform="translate(-25.436 -25.438)"><g transform="translate(26.892 26.892)"><circle class="a" cx="30.589" cy="30.589" r="30.589"/><path class="b" d="M63.236,66.018A10.422,10.422,0,1,0,43.924,58.8a4.736,4.736,0,0,1-2.576,3.158,5.934,5.934,0,0,0-2.543,2.41c-2.077,3.765.54,9.194,5.849,12.125s11.3,2.255,13.378-1.51a5.723,5.723,0,0,0,.691-2.342,4.69,4.69,0,0,1,1.752-3.407A10.32,10.32,0,0,0,63.236,66.018Z" transform="translate(-29.031 -31.137)"/><path class="c" d="M55.57,69.732A3.236,3.236,0,1,1,52.335,66.5a3.236,3.236,0,0,1,3.236,3.232Z" transform="translate(-30.892 -33.833)"/><path class="d" d="M85.166,62.177,78.744,51.054a7.505,7.505,0,0,0-.258-6.5c-2.416-4.181-9.084-4.848-14.9-1.491a15.079,15.079,0,0,0-5.857,5.906,10.163,10.163,0,0,1,4.435,1.1,10.393,10.393,0,0,1,3.766,15.314l3.42,5.925a2.689,2.689,0,0,0,3.674.985l11.16-6.443a2.689,2.689,0,0,0,.981-3.673Z" transform="translate(-32.351 -29.51)"/></g><g transform="translate(25.436 25.438)"><path d="M57.481,25.438A32.044,32.044,0,1,0,89.524,57.482,32.044,32.044,0,0,0,57.481,25.438Zm0,61.179A29.136,29.136,0,1,1,86.617,57.481,29.136,29.136,0,0,1,57.481,86.617Z" transform="translate(-25.436 -25.438)"/><path d="M52.039,64.746a4.69,4.69,0,1,0,4.69,4.69,4.69,4.69,0,0,0-4.69-4.69Zm0,6.471a1.782,1.782,0,1,1,1.782-1.781,1.782,1.782,0,0,1-1.782,1.781Z" transform="translate(-29.14 -32.083)"/><path d="M74.4,49.5a1.455,1.455,0,0,0-.533,1.987l6.422,11.122a1.236,1.236,0,0,1-.451,1.688l-11.16,6.442A1.234,1.234,0,0,1,67,70.289l-2.981-5.165c.065-.109.139-.212.2-.323h0a11.878,11.878,0,0,0-5-16.32,11.576,11.576,0,0,0-2.612-.945,14.459,14.459,0,0,1,4.1-3.5c4-2.309,8.55-2.6,11.325-.725a1.454,1.454,0,1,0,1.628-2.41c-3.675-2.483-9.465-2.237-14.407.617a16.89,16.89,0,0,0-5.977,5.725,11.952,11.952,0,0,0-9.826,6.044,11.785,11.785,0,0,0-1.235,3.3,3.3,3.3,0,0,1-1.819,2.16,7.423,7.423,0,0,0-3.153,3c-2.462,4.461.415,10.787,6.419,14.1a15.382,15.382,0,0,0,7.361,1.988c3.49,0,6.527-1.405,8-4.064a7.163,7.163,0,0,0,.866-2.933,3.263,3.263,0,0,1,1.187-2.365,11.964,11.964,0,0,0,1.015-.88l2.4,4.155a4.147,4.147,0,0,0,5.66,1.517L81.3,66.815a4.144,4.144,0,0,0,1.516-5.66L76.391,50.033A1.454,1.454,0,0,0,74.4,49.5ZM59.293,66.157a6.166,6.166,0,0,0-2.318,4.451,4.272,4.272,0,0,1-.514,1.751c-1.662,3.006-6.879,3.436-11.4.94s-6.938-7.146-5.278-10.149a4.461,4.461,0,0,1,1.932-1.814,6.184,6.184,0,0,0,3.339-4.155,8.863,8.863,0,0,1,.932-2.487,9.044,9.044,0,0,1,7.894-4.587c.035,0,.071.006.106.006s.088.016.133.016c.014,0,.028,0,.043-.006a8.778,8.778,0,0,1,3.731.945A8.962,8.962,0,0,1,61.168,64.2l-.019.025a8.833,8.833,0,0,1-1.856,1.935Z" transform="translate(-27.282 -27.763)"/></g></g></svg>