<svg xmlns="http://www.w3.org/2000/svg" width="35.99" height="31.632" viewBox="0 0 35.99 31.632"><path d="M11.6,21.088H30.718a1.055,1.055,0,0,0,1.014-.765L35.95,5.562a1.054,1.054,0,0,0-1.014-1.344H9.164L8.41.826A1.055,1.055,0,0,0,7.381,0H1.054a1.054,1.054,0,0,0,0,2.109H6.535L10.342,19.24A3.163,3.163,0,0,0,11.6,25.306h19.12a1.054,1.054,0,1,0,0-2.109H11.6a1.054,1.054,0,0,1,0-2.109ZM33.538,6.326,29.923,18.979H12.444L9.632,6.326Zm0,0"/><path d="M150,363.163A3.163,3.163,0,1,0,153.163,360,3.167,3.167,0,0,0,150,363.163Zm3.163-1.054a1.054,1.054,0,1,1-1.054,1.054A1.056,1.056,0,0,1,153.163,362.109Zm0,0" transform="translate(-139.456 -334.694)"/><path d="M362,363.163A3.163,3.163,0,1,0,365.163,360,3.167,3.167,0,0,0,362,363.163Zm3.163-1.054a1.054,1.054,0,1,1-1.054,1.054A1.056,1.056,0,0,1,365.163,362.109Zm0,0" transform="translate(-336.554 -334.694)"/></svg>