<svg xmlns="http://www.w3.org/2000/svg" width="29.215" height="29.152" viewBox="0 0 29.215 29.152"><g transform="translate(0 -0.518)"><g transform="translate(0 0.518)"><g transform="translate(0 0)"><path d="M28.753,5.33,27.877.911A.487.487,0,0,0,27.3.528h0L3.18,5.324H2.434a.487.487,0,0,0-.487.487V8.295A2.429,2.429,0,0,0,0,10.68V27.235A2.437,2.437,0,0,0,2.434,29.67H28.728a.487.487,0,0,0,.487-.487V5.811A.487.487,0,0,0,28.753,5.33ZM27.016,1.578l.744,3.746H8.174ZM1.4,9.647l0,0A1.489,1.489,0,0,1,1.948,9.3v2.749l-.032-.01a1.432,1.432,0,0,1-.183-.088.878.878,0,0,1-.089-.049,1.5,1.5,0,0,1-.243-.191A1.465,1.465,0,0,1,1.4,9.647ZM28.241,22.853H21.424v-3.9h6.817Zm0-4.869h-7.3a.487.487,0,0,0-.487.487V23.34a.487.487,0,0,0,.487.487h7.3V28.7H2.434A1.461,1.461,0,0,1,.974,27.235V12.628c.022.017.046.028.069.043.043.03.087.056.131.083a2.448,2.448,0,0,0,.254.135c.049.022.1.043.146.062a2.346,2.346,0,0,0,.287.087c.045.011.089.025.135.034a2.434,2.434,0,0,0,.439.043H28.241ZM12.207,12.141a3.408,3.408,0,0,1,6.748,0Zm16.033,0H19.934a4.382,4.382,0,0,0-8.707,0H2.921V6.3H28.241Z" transform="translate(0 -0.518)"/></g></g><g transform="translate(23.858 7.272)"><path d="M394.921,111.482H392v.974h2.435v2.435h.974v-2.921A.487.487,0,0,0,394.921,111.482Z" transform="translate(-392 -111.482)"/></g><g transform="translate(3.895 7.272)"><path d="M64.487,111.482a.487.487,0,0,0-.487.487v2.921h.974v-2.435h2.435v-.974Z" transform="translate(-64 -111.482)"/></g><g transform="translate(22.398 20.419)"><rect width="0.974" height="0.974"/></g></g></svg>