<svg xmlns="http://www.w3.org/2000/svg" width="35.242" height="28.909" viewBox="0 0 35.242 28.909"><defs><style>.a{fill:#8d8d8d;}</style></defs><g transform="translate(0 -46.001)"><path class="a" d="M2.065,67.747v6.13a1.032,1.032,0,1,0,2.065,0V68.715h4.2v5.162a1.032,1.032,0,1,0,2.065,0V70.264l7.227-5.42,7.227,5.42v3.614a1.032,1.032,0,0,0,2.065,0V68.715h4.2v5.162a1.032,1.032,0,1,0,2.065,0V67.747l2.057-16.456a1.032,1.032,0,1,0-2.049-.256L31.749,62.521H26.913V57.358a1.032,1.032,0,0,0-1.032-1.032H18.653V54.261h1.032a3.1,3.1,0,0,0,3.1-3.1V49.1a1.032,1.032,0,1,0-2.065,0v2.065A1.034,1.034,0,0,1,19.686,52.2H18.653V47.033a1.032,1.032,0,1,0-2.065,0V52.2H15.556a1.034,1.034,0,0,1-1.032-1.032V49.1a1.032,1.032,0,1,0-2.065,0v2.065a3.1,3.1,0,0,0,3.1,3.1h1.032v2.065H9.373a1.033,1.033,0,0,0-1.044,1.043v5.152H3.492L2.057,51.035a1.032,1.032,0,1,0-2.049.256Zm24.848-3.162h4.578l-.258,2.065h-4.32Zm-2.065-6.195v9.292l-12.39-9.292ZM10.393,59.423l5.507,4.13-5.507,4.13ZM8.328,64.585V66.65H4.009l-.258-2.065Z" transform="translate(0)"/></g></svg>