<svg xmlns="http://www.w3.org/2000/svg" width="47.186" height="38.707" viewBox="0 0 47.186 38.707"><g transform="translate(0 0)"><path d="M266.922,180a.922.922,0,1,0,.922.922A.922.922,0,0,0,266.922,180Zm0,0" transform="translate(-241.486 -163.411)"/><path d="M44.421,105.8c0-10.217-7.982-18.6-17.778-20.05a3.686,3.686,0,1,0-6.1,0C10.785,87.2,2.765,95.553,2.765,105.8a2.765,2.765,0,0,0,0,5.53H44.421a2.765,2.765,0,1,0,0-5.53ZM21.75,83.686a1.843,1.843,0,1,1,1.843,1.843A1.845,1.845,0,0,1,21.75,83.686Zm1.843,3.686c10.15,0,18.985,8.21,18.985,18.432H4.608C4.608,95.814,13.3,87.373,23.593,87.373Zm20.828,22.118H2.765a.922.922,0,0,1,0-1.843H44.421a.922.922,0,1,1,0,1.843Zm0,0" transform="translate(0 -72.627)"/><path d="M315.806,199.213a17.579,17.579,0,0,0-9.947-8.74.922.922,0,0,0-.637,1.73,15.927,15.927,0,0,1,8.906,7.772.922.922,0,1,0,1.678-.762Zm0,0" transform="translate(-276.545 -172.867)"/><path d="M420.707,81.784l-2.183-1.091-1.091-2.183a.922.922,0,0,0-1.649,0l-1.091,2.183-2.183,1.091a.922.922,0,0,0,0,1.649l2.183,1.091,1.091,2.183a.922.922,0,0,0,1.649,0l1.091-2.183,2.183-1.091a.922.922,0,0,0,0-1.649Zm-3.282,1.229a.919.919,0,0,0-.413.412l-.4.809-.4-.809a.917.917,0,0,0-.412-.412l-.809-.4.809-.4a.917.917,0,0,0,.412-.412l.4-.809.4.809a.917.917,0,0,0,.412.412l.809.4Zm0,0" transform="translate(-374.03 -70.812)"/><path d="M4.34,8.562l1.237,3.71a.922.922,0,0,0,1.749,0l1.237-3.71,3.71-1.237a.922.922,0,0,0,0-1.749L8.562,4.34,7.326.63a.922.922,0,0,0-1.749,0L4.34,4.34.63,5.577a.922.922,0,0,0,0,1.749ZM5.36,5.943a.922.922,0,0,0,.583-.583l.508-1.524L6.959,5.36a.922.922,0,0,0,.583.583l1.524.508-1.524.508a.922.922,0,0,0-.583.583L6.451,9.067,5.943,7.542a.922.922,0,0,0-.583-.583L3.836,6.451Zm0,0" transform="translate(0 0)"/></g></svg>