<svg width="164" height="171" viewBox="0 0 164 171" fill="none" xmlns="http://www.w3.org/2000/svg">
<path d="M143.669 62.9527C146.573 62.9527 148.927 60.5962 148.927 57.6893C148.927 54.7824 146.573 52.4259 143.669 52.4259C140.764 52.4259 138.41 54.7824 138.41 57.6893C138.41 60.5962 140.764 62.9527 143.669 62.9527Z" fill="#EAEEF9"/>
<path d="M3.98012 91.4163C5.89084 91.4163 7.43979 89.8659 7.43979 87.9535C7.43979 86.0411 5.89084 84.4907 3.98012 84.4907C2.06939 84.4907 0.520439 86.0411 0.520439 87.9535C0.520439 89.8659 2.06939 91.4163 3.98012 91.4163Z" fill="#EAEEF9"/>
<path d="M19.8836 153.67C21.7943 153.67 23.3432 152.12 23.3432 150.208C23.3432 148.295 21.7943 146.745 19.8836 146.745C17.9728 146.745 16.4239 148.295 16.4239 150.208C16.4239 152.12 17.9728 153.67 19.8836 153.67Z" fill="#EAEEF9"/>
<path d="M38.3769 153.67L86.9258 138.458V76.0868L38.3769 91.1823V153.67Z" fill="#F1F3F9" stroke="#D6DCE8" stroke-width="2.74995" stroke-miterlimit="10" stroke-linejoin="round"/>
<path d="M135.475 153.67L86.9258 138.458V76.0868L135.475 91.1823V153.67Z" fill="#F1F3F9" stroke="#D6DCE8" stroke-width="2.74995" stroke-miterlimit="10" stroke-linejoin="round"/>
<path d="M86.9258 169L38.3769 153.788V91.4163L86.9258 106.629V169Z" fill="white" stroke="#D6DCE8" stroke-width="2.74995" stroke-miterlimit="10" stroke-linejoin="round"/>
<path d="M86.9258 169L135.475 153.788V91.4163L86.9258 106.629V169Z" fill="white" stroke="#D6DCE8" stroke-width="2.74995" stroke-miterlimit="10" stroke-linejoin="round"/>
<path d="M86.9258 76.0868L64.0997 59.002L14.7396 75.6187L38.3768 91.1823L86.9258 76.0868Z" fill="#F1F3F9" stroke="#D6DCE8" stroke-width="2.74995" stroke-miterlimit="10" stroke-linejoin="round"/>
<path d="M86.9258 76.0868L109.752 59.002L159.112 75.6187L135.475 91.1823L86.9258 76.0868Z" fill="#F1F3F9" stroke="#D6DCE8" stroke-width="2.74995" stroke-miterlimit="10" stroke-linejoin="round"/>
<path d="M38.3768 91.4163L86.9258 106.629L62.7093 122.075L14.7396 106.161L38.3768 91.4163Z" fill="#F1F3F9" stroke="#D6DCE8" stroke-width="2.74995" stroke-miterlimit="10" stroke-linejoin="round"/>
<path d="M135.475 91.4163L86.9258 106.629L111.142 122.075L159.112 106.161L135.475 91.4163Z" fill="#F1F3F9" stroke="#D6DCE8" stroke-width="2.74995" stroke-miterlimit="10" stroke-linejoin="round"/>
<path d="M100.471 16.2084C107.273 34.6667 109.3 38.768 109.965 56.956C109.71 61.1077 109.551 65.6223 107.594 69.2575C104.98 74.8186 98.5858 78.6698 92.5451 78.7322C86.3221 78.8434 80.2212 75.0332 77.4752 69.1578C75.5432 65.592 75.6047 60.7146 78.2548 57.4772C81.1358 54.3723 86.2042 53.5981 89.8502 55.5382C93.8609 57.3805 96.2547 61.2115 97.1414 65.2516C98.0281 69.2918 97.6385 73.6737 96.5562 77.6579C94.2926 87.348 92.4179 87.8168 86.8667 104.223" stroke="#C9D4E2" stroke-width="2.74995" stroke-miterlimit="10" stroke-dasharray="5.5 5.5"/>
<path d="M108.749 6.43843C108.733 9.15259 106.207 10.8145 103.004 9.94788C99.6318 9.37299 97.2449 8.78048 97.0913 6.35805C97.1687 3.87376 99.8791 2.90144 103.052 1.80539C106.856 0.29385 108.534 3.78613 108.749 6.43843Z" fill="#F1F3F9" stroke="#D6DCE8" stroke-width="2.74995" stroke-miterlimit="10" stroke-linejoin="round"/>
<path d="M86.9569 14.7383C88.666 16.4977 92.2695 17.0107 94.0255 14.3232C95.9509 11.344 97.599 9.17804 95.8283 7.18871C94.1192 5.42924 92.4558 6.61381 88.6518 8.12535C85.6025 9.68114 84.9552 12.8108 86.9569 14.7383Z" fill="#F1F3F9" stroke="#D6DCE8" stroke-width="2.74995" stroke-miterlimit="10" stroke-linejoin="round"/>
<path d="M94.8433 3.51114C96.3988 2.84818 98.2621 3.33456 99.0935 4.59003C99.4476 4.98789 99.8633 5.61563 99.9865 6.07537C101.31 9.16979 100.894 12.2376 99.1077 12.9624C97.1518 13.979 94.4571 12.2371 93.4257 9.31069C93.1794 8.39122 93.0563 7.93148 92.8716 7.24188C92.6716 5.57093 93.2878 4.1741 94.8433 3.51114C94.8433 3.51114 95.0743 3.44927 94.8433 3.51114Z" fill="#F1F3F9"/>
<path d="M94.8433 3.51114C96.3988 2.84818 98.2621 3.33456 99.0935 4.59003C99.4476 4.98789 99.8633 5.61563 99.9865 6.07537C101.31 9.16979 100.894 12.2376 99.1077 12.9624C97.1518 13.979 94.4571 12.2371 93.4257 9.3107C93.1794 8.39122 93.0563 7.93148 92.8716 7.24188C92.6716 5.57093 93.2878 4.1741 94.8433 3.51114ZM94.8433 3.51114C94.8433 3.51114 95.0743 3.44927 94.8433 3.51114Z" stroke="#D6DCE8" stroke-width="2.74995" stroke-miterlimit="10" stroke-linejoin="round"/>
<path d="M23.3432 53.3237H20.332V50.3124H17.7509V53.3237H14.7396V55.9908H17.7509V59.0021H20.332V55.9908H23.3432V53.3237Z" fill="#AAB2C5"/>
<path d="M29.9578 128.875H26.9465V125.863H24.3654V128.875H21.3542V131.542H24.3654V134.553H26.9465V131.542H29.9578V128.875Z" fill="#AAB2C5"/>
<path d="M161.595 129.045L157.91 127.185L159.771 123.501L156.613 121.906L154.752 125.59L151.068 123.73L149.421 126.994L153.105 128.854L151.245 132.538L154.403 134.132L156.263 130.448L159.947 132.308L161.595 129.045Z" fill="#AAB2C5"/>
</svg>
