<svg xmlns="http://www.w3.org/2000/svg" width="44.784" height="44.781" viewBox="0 0 44.784 44.781"><path d="M44.12,6.665a6.56,6.56,0,1,0-6.56,6.56A6.631,6.631,0,0,0,44.12,6.665ZM37.56,10.6a3.941,3.941,0,0,1-3.936-3.936,3.937,3.937,0,1,1,7.872,0A3.941,3.941,0,0,1,37.56,10.6Z" transform="translate(-28.288 -0.017)"/><path d="M344.12,6.665a6.56,6.56,0,1,0-6.56,6.56A6.631,6.631,0,0,0,344.12,6.665ZM337.56,10.6a3.941,3.941,0,0,1-3.936-3.936,3.937,3.937,0,1,1,7.872,0A3.941,3.941,0,0,1,337.56,10.6Z" transform="translate(-302.048 -0.017)"/><path d="M35.513,151.017a9.187,9.187,0,0,0-8.742,6.361,9.172,9.172,0,0,0-8.757,0A9.236,9.236,0,0,0,0,160.2v9.183H12.046a7.087,7.087,0,0,0-.072,1c0,3.556,2.719,5.79,6.482,8.883,2.793,2.3,3.241,2.733,3.935,3.325.851-.725,1.062-.964,3.935-3.325,3.763-3.092,6.482-5.327,6.482-8.883a7.065,7.065,0,0,0-.072-1H44.784V160.2A9.239,9.239,0,0,0,35.513,151.017Zm-6.635,13.444a5.785,5.785,0,0,0-1.92-.324,6.233,6.233,0,0,0-4.566,2.137,6.233,6.233,0,0,0-4.566-2.137,5.784,5.784,0,0,0-1.92.324,6.561,6.561,0,0,1,12.971,0Zm-26.254,2.3V160.2a6.608,6.608,0,0,1,13.118-1.08,9.152,9.152,0,0,0-2.534,6.329v1.031q-.1.137-.193.281Zm22.037,10.477c-.7.572-1.462,1.2-2.269,1.886-.807-.685-1.573-1.314-2.269-1.886-3.731-3.066-5.524-4.638-5.524-6.855a3.343,3.343,0,0,1,3.228-3.621,4.39,4.39,0,0,1,3.459,2.358l1.107,1.739,1.107-1.739a4.39,4.39,0,0,1,3.459-2.358,3.343,3.343,0,0,1,3.228,3.621C30.186,172.6,28.392,174.172,24.662,177.238Zm17.5-10.477H31.769q-.093-.143-.193-.281v-1.031a9.152,9.152,0,0,0-2.534-6.329A6.608,6.608,0,0,1,42.16,160.2Z" transform="translate(0 -137.809)"/><path d="M206.5,96.265a5.248,5.248,0,1,0-5.248,5.248A5.254,5.254,0,0,0,206.5,96.265Zm-5.248,2.624a2.624,2.624,0,1,1,2.624-2.624A2.627,2.627,0,0,1,201.248,98.889Z" transform="translate(-178.856 -83.057)"/></svg>