<svg xmlns="http://www.w3.org/2000/svg" width="34.717" height="34.602" viewBox="0 0 34.717 34.602"><g transform="translate(0 -0.001)"><g transform="translate(15.974 0.001)"><path d="M1.442,32.568H14.417a1.442,1.442,0,0,0,1.442-1.442V5.175a1.442,1.442,0,0,0-1.442-1.442H1.442a1.442,1.442,0,0,1,0-2.884H14.417a4.33,4.33,0,0,1,4.325,4.325V31.126a4.33,4.33,0,0,1-4.325,4.325H1.442a1.442,1.442,0,0,1,0-2.883Z" transform="translate(0 -0.85)"/></g><g transform="translate(0 7.209)"><path d="M170.53,116.23l8.766-8.65a1.442,1.442,0,1,1,2.024,2.053l-6.264,6.182h16.786a1.442,1.442,0,0,1,0,2.883H175.055l6.264,6.182a1.442,1.442,0,1,1-2.024,2.053l-8.766-8.65a1.441,1.441,0,0,1,0-2.053Z" transform="translate(-170.1 -107.165)"/></g></g></svg>