<svg xmlns="http://www.w3.org/2000/svg" width="32.044" height="18.15" viewBox="0 0 32.044 18.15"><g transform="translate(0 -18.139)"><path d="M31.105,233.265h-.411a12.191,12.191,0,0,0-20.957-7.51,8.461,8.461,0,0,0-8.37,7.51H.939A.939.939,0,0,0,0,234.2a5.952,5.952,0,0,0,5.946,5.946H26.1a5.952,5.952,0,0,0,5.946-5.946A.939.939,0,0,0,31.105,233.265Zm-2.3,0H26.922a8.461,8.461,0,0,0-8.4-7.51,8.37,8.37,0,0,0-4.377,1.229,8.408,8.408,0,0,0-2-.886,10.31,10.31,0,0,1,16.661,7.167Zm-10.649,0a8.387,8.387,0,0,0-.393-1.772,2.781,2.781,0,0,1,.759-.106,2.821,2.821,0,0,1,2.655,1.878Zm4.965,0a4.687,4.687,0,0,0-6.165-3.484,8.508,8.508,0,0,0-1.207-1.531,6.5,6.5,0,0,1,2.773-.618,6.581,6.581,0,0,1,6.5,5.633ZM9.763,227.633a6.581,6.581,0,0,1,6.5,5.633h-1.9a4.694,4.694,0,0,0-9.2,0h-1.9a6.581,6.581,0,0,1,6.5-5.633Zm2.655,5.633H7.108a2.816,2.816,0,0,1,5.31,0Zm13.68,5.007H5.946a4.075,4.075,0,0,1-3.959-3.129h28.07A4.075,4.075,0,0,1,26.1,238.272Z" transform="translate(0 -203.861)"/></g></svg>