<svg xmlns="http://www.w3.org/2000/svg" width="36.617" height="24.411" viewBox="0 0 36.617 24.411"><g transform="translate(0 -85.333)"><g transform="translate(0 85.333)"><g transform="translate(0 0)"><path d="M32.8,85.333H3.814A3.82,3.82,0,0,0,0,89.147V105.93a3.82,3.82,0,0,0,3.814,3.814H32.8a3.82,3.82,0,0,0,3.814-3.814V89.147A3.819,3.819,0,0,0,32.8,85.333Zm2.289,20.6a2.291,2.291,0,0,1-2.289,2.289H3.814a2.291,2.291,0,0,1-2.289-2.289V89.147a2.291,2.291,0,0,1,2.289-2.289H32.8a2.291,2.291,0,0,1,2.289,2.289V105.93Z" transform="translate(0 -85.333)"/></g></g><g transform="translate(0 89.91)"><g transform="translate(0 0)"><path d="M35.854,149.333H.763A.763.763,0,0,0,0,150.1v4.577a.763.763,0,0,0,.763.763H35.854a.763.763,0,0,0,.763-.763V150.1A.763.763,0,0,0,35.854,149.333Zm-.763,4.577H1.526v-3.051H35.091v3.051Z" transform="translate(0 -149.333)"/></g></g><g transform="translate(4.577 100.59)"><g transform="translate(0 0)"><path d="M73.917,298.667H64.763a.763.763,0,1,0,0,1.526h9.154a.763.763,0,1,0,0-1.526Z" transform="translate(-64 -298.667)"/></g></g><g transform="translate(4.577 103.642)"><path d="M73.917,341.333H64.763a.763.763,0,1,0,0,1.526h9.154a.763.763,0,1,0,0-1.526Z" transform="translate(-64 -341.333)"/></g><g transform="translate(25.937 99.064)"><path d="M366.481,277.333h-1.526a2.291,2.291,0,0,0-2.289,2.289v1.526a2.291,2.291,0,0,0,2.289,2.289h1.526a2.291,2.291,0,0,0,2.289-2.289v-1.526A2.291,2.291,0,0,0,366.481,277.333Zm.763,3.814a.763.763,0,0,1-.763.763h-1.526a.763.763,0,0,1-.763-.763v-1.526a.763.763,0,0,1,.763-.763h1.526a.763.763,0,0,1,.763.763Z" transform="translate(-362.667 -277.333)"/></g></g></svg>