<svg xmlns="http://www.w3.org/2000/svg" width="35.784" height="29.354" viewBox="0 0 35.784 29.354"><path d="M246.847,386a.847.847,0,1,0,.847.847A.847.847,0,0,0,246.847,386Z" transform="translate(-228.955 -363.42)"/><path d="M32.785,47.074A17.366,17.366,0,0,0,26.488,46a17.366,17.366,0,0,0-6.3,1.074,6.2,6.2,0,0,0-2.3,1.471,6.2,6.2,0,0,0-2.3-1.471A17.364,17.364,0,0,0,9.3,46,17.366,17.366,0,0,0,3,47.074c-1.934.779-3,1.887-3,3.119V66.967c0,1.232,1.065,2.34,3,3.119a17,17,0,0,0,5.807,1.068v.006c0,2.391,3.906,4.193,9.086,4.193s9.086-1.8,9.086-4.193v-.006a17,17,0,0,0,5.807-1.068c1.934-.779,3-1.887,3-3.119V50.193C35.784,48.961,34.719,47.853,32.785,47.074Zm1.6,15.7c0,.6-.814,1.295-2.124,1.823a15.8,15.8,0,0,1-5.285.966V62.774s0,0,0-.006A17,17,0,0,0,32.785,61.7a7.61,7.61,0,0,0,1.6-.856v1.93ZM17.193,54.387c0,.6-.814,1.3-2.124,1.823a16.183,16.183,0,0,1-5.774.973,16.183,16.183,0,0,1-5.774-.973C2.212,55.682,1.4,54.984,1.4,54.387v-1.93a7.611,7.611,0,0,0,1.6.856,17.366,17.366,0,0,0,6.3,1.074,17.366,17.366,0,0,0,6.3-1.074,7.61,7.61,0,0,0,1.6-.856ZM3,57.506A17.366,17.366,0,0,0,9.3,58.58a17.366,17.366,0,0,0,6.3-1.074,7.61,7.61,0,0,0,1.6-.856v1.942a17,17,0,0,0-4.945.852,6.014,6.014,0,0,0-2.969,1.931A16.173,16.173,0,0,1,3.521,60.4C2.212,59.875,1.4,59.177,1.4,58.58V56.65A7.61,7.61,0,0,0,3,57.506ZM1.4,60.844A7.61,7.61,0,0,0,3,61.7a17,17,0,0,0,5.807,1.068s0,0,0,.006v2.789A15.8,15.8,0,0,1,3.522,64.6C2.212,64.069,1.4,63.37,1.4,62.774Zm8.88,1.587c.518-1.205,3.508-2.452,7.614-2.452s7.1,1.247,7.613,2.451a.865.865,0,0,1,.075.345c0,.614-.758,1.3-2.026,1.826a15.211,15.211,0,0,1-5.661.97,15.211,15.211,0,0,1-5.661-.97c-1.269-.529-2.026-1.211-2.026-1.826A.863.863,0,0,1,10.278,62.43Zm24.108-3.85c0,.6-.814,1.295-2.124,1.823a16.171,16.171,0,0,1-5.758.973,6.014,6.014,0,0,0-2.97-1.931,16.993,16.993,0,0,0-4.945-.852V56.65a7.61,7.61,0,0,0,1.6.856,17.366,17.366,0,0,0,6.3,1.074,17.366,17.366,0,0,0,6.3-1.074,7.61,7.61,0,0,0,1.6-.856Zm0-4.193c0,.6-.814,1.3-2.124,1.823a16.183,16.183,0,0,1-5.774.973,16.183,16.183,0,0,1-5.774-.973c-1.31-.528-2.124-1.226-2.124-1.823v-1.93a7.611,7.611,0,0,0,1.6.856,17.366,17.366,0,0,0,6.3,1.074,17.366,17.366,0,0,0,6.3-1.074,7.61,7.61,0,0,0,1.6-.856ZM20.714,48.371a16.183,16.183,0,0,1,5.774-.973,16.183,16.183,0,0,1,5.774.973c1.31.528,2.124,1.226,2.124,1.823s-.814,1.3-2.124,1.823a16.183,16.183,0,0,1-5.774.973,16.183,16.183,0,0,1-5.774-.973c-1.31-.528-2.124-1.226-2.124-1.823S19.4,48.9,20.714,48.371Zm-17.193,0A16.183,16.183,0,0,1,9.3,47.4a16.183,16.183,0,0,1,5.774.973c1.31.528,2.124,1.226,2.124,1.823s-.814,1.3-2.124,1.823a16.184,16.184,0,0,1-5.774.973,16.183,16.183,0,0,1-5.774-.973C2.212,51.488,1.4,50.79,1.4,50.193S2.212,48.9,3.521,48.371Zm0,20.419C2.212,68.262,1.4,67.564,1.4,66.967v-1.93a7.61,7.61,0,0,0,1.6.856,17,17,0,0,0,5.807,1.068v2.795A15.8,15.8,0,0,1,3.521,68.79Zm20.032,4.2a15.211,15.211,0,0,1-5.661.97,15.211,15.211,0,0,1-5.661-.97c-1.269-.529-2.026-1.211-2.026-1.826V69.271a6.16,6.16,0,0,0,.527.341A12.241,12.241,0,0,0,15,70.955a.708.708,0,0,0,.1.007.7.7,0,0,0,.1-1.39c-3.248-.477-5-1.7-5-2.605v-1.9c1.582,1.158,4.374,1.9,7.688,1.9s6.106-.738,7.688-1.9v1.9c0,.907-1.753,2.128-5,2.605a.7.7,0,0,0,.1,1.39.708.708,0,0,0,.1-.007,12.24,12.24,0,0,0,4.271-1.343,6.172,6.172,0,0,0,.527-.341v1.889C25.58,71.775,24.822,72.458,23.553,72.986Zm8.709-4.2a15.8,15.8,0,0,1-5.285.966V66.961a17,17,0,0,0,5.807-1.068,7.61,7.61,0,0,0,1.6-.856v1.93C34.386,67.564,33.572,68.262,32.262,68.79Z" transform="translate(0 -46)"/></svg>