<svg xmlns="http://www.w3.org/2000/svg" width="32.485" height="26.648" viewBox="0 0 32.485 26.648"><defs><style>.a{fill:#fff;}</style></defs><path class="a" d="M246.635,386a.634.634,0,1,0,.634.634A.635.635,0,0,0,246.635,386Z" transform="translate(-230.392 -364.428)"/><path class="a" d="M29.762,46.975A15.765,15.765,0,0,0,24.047,46a15.765,15.765,0,0,0-5.716.975,5.631,5.631,0,0,0-2.088,1.335,5.631,5.631,0,0,0-2.088-1.335A15.764,15.764,0,0,0,8.439,46a15.765,15.765,0,0,0-5.716.975C.967,47.682,0,48.688,0,49.807V65.034c0,1.119.967,2.124,2.723,2.832a15.431,15.431,0,0,0,5.272.97v.005c0,2.17,3.546,3.807,8.248,3.807s8.248-1.637,8.248-3.807v-.005a15.431,15.431,0,0,0,5.272-.97c1.756-.707,2.723-1.713,2.723-2.832V49.807C32.485,48.688,31.518,47.682,29.762,46.975Zm1.454,14.252c0,.542-.739,1.176-1.928,1.655a14.343,14.343,0,0,1-4.8.877V61.227s0,0,0-.005a15.43,15.43,0,0,0,5.272-.97,6.908,6.908,0,0,0,1.454-.777v1.752ZM15.608,53.614c0,.542-.739,1.176-1.928,1.655a14.691,14.691,0,0,1-5.242.883A14.691,14.691,0,0,1,3.2,55.268c-1.189-.479-1.928-1.113-1.928-1.655V51.862a6.909,6.909,0,0,0,1.454.777,15.765,15.765,0,0,0,5.716.975,15.765,15.765,0,0,0,5.716-.975,6.908,6.908,0,0,0,1.454-.777ZM2.723,56.445a15.765,15.765,0,0,0,5.716.975,15.765,15.765,0,0,0,5.716-.975,6.909,6.909,0,0,0,1.454-.777v1.763a15.429,15.429,0,0,0-4.489.773,5.46,5.46,0,0,0-2.7,1.753A14.681,14.681,0,0,1,3.2,59.075c-1.189-.479-1.928-1.113-1.928-1.655V55.669A6.909,6.909,0,0,0,2.723,56.445Zm-1.454,3.03a6.908,6.908,0,0,0,1.454.777,15.432,15.432,0,0,0,5.272.97s0,0,0,.005v2.532a14.343,14.343,0,0,1-4.8-.877c-1.189-.479-1.928-1.113-1.928-1.655Zm8.062,1.44c.47-1.094,3.184-2.226,6.912-2.226s6.442,1.132,6.912,2.225a.785.785,0,0,1,.068.313c0,.558-.688,1.177-1.84,1.657a13.809,13.809,0,0,1-5.14.88,13.809,13.809,0,0,1-5.14-.88c-1.152-.48-1.84-1.1-1.84-1.657A.784.784,0,0,1,9.33,60.916Zm21.886-3.5c0,.542-.739,1.176-1.928,1.655a14.68,14.68,0,0,1-5.227.883,5.46,5.46,0,0,0-2.7-1.753,15.427,15.427,0,0,0-4.489-.773V55.669a6.909,6.909,0,0,0,1.454.777,15.765,15.765,0,0,0,5.716.975,15.765,15.765,0,0,0,5.716-.975,6.909,6.909,0,0,0,1.454-.777Zm0-3.807c0,.542-.739,1.176-1.928,1.655a14.691,14.691,0,0,1-5.242.883,14.691,14.691,0,0,1-5.242-.883c-1.189-.479-1.928-1.113-1.928-1.655V51.862a6.909,6.909,0,0,0,1.454.777,15.765,15.765,0,0,0,5.716.975,15.765,15.765,0,0,0,5.716-.975,6.908,6.908,0,0,0,1.454-.777ZM18.8,48.152a14.692,14.692,0,0,1,5.242-.883,14.692,14.692,0,0,1,5.242.883c1.189.479,1.928,1.113,1.928,1.655s-.739,1.176-1.928,1.655a14.692,14.692,0,0,1-5.242.883,14.692,14.692,0,0,1-5.242-.883c-1.189-.479-1.928-1.113-1.928-1.655S17.616,48.631,18.8,48.152Zm-15.608,0a14.692,14.692,0,0,1,5.242-.883,14.692,14.692,0,0,1,5.242.883c1.189.479,1.928,1.113,1.928,1.655s-.739,1.176-1.928,1.655a14.692,14.692,0,0,1-5.242.883A14.692,14.692,0,0,1,3.2,51.461c-1.189-.479-1.928-1.113-1.928-1.655S2.008,48.631,3.2,48.152Zm0,18.537c-1.189-.479-1.928-1.113-1.928-1.655V63.282a6.908,6.908,0,0,0,1.454.777,15.431,15.431,0,0,0,5.272.97v2.537A14.343,14.343,0,0,1,3.2,66.689ZM21.382,70.5a13.809,13.809,0,0,1-5.14.88,13.809,13.809,0,0,1-5.14-.88c-1.152-.48-1.84-1.1-1.84-1.657V67.126a5.589,5.589,0,0,0,.479.309,11.112,11.112,0,0,0,3.877,1.22.642.642,0,0,0,.093.007A.635.635,0,0,0,13.8,67.4c-2.949-.433-4.54-1.542-4.54-2.365V63.314a12.385,12.385,0,0,0,6.979,1.721,12.385,12.385,0,0,0,6.979-1.721v1.721c0,.823-1.591,1.932-4.54,2.365a.635.635,0,0,0,.091,1.262.642.642,0,0,0,.093-.007,11.112,11.112,0,0,0,3.877-1.22,5.6,5.6,0,0,0,.479-.309v1.715C23.222,69.4,22.534,70.019,21.382,70.5Zm7.906-3.81a14.343,14.343,0,0,1-4.8.877V65.029a15.431,15.431,0,0,0,5.272-.97,6.909,6.909,0,0,0,1.454-.777v1.752C31.216,65.576,30.477,66.21,29.288,66.689Z" transform="translate(0 -46)"/></svg>