<?xml version="1.0" standalone="no"?>
<!DOCTYPE svg PUBLIC "-//W3C//DTD SVG 20010904//EN"
 "http://www.w3.org/TR/2001/REC-SVG-20010904/DTD/svg10.dtd">
<svg version="1.0" xmlns="http://www.w3.org/2000/svg"
 width="700.000000pt" height="700.000000pt" viewBox="0 0 700.000000 700.000000"
 preserveAspectRatio="xMidYMid meet">
<metadata>
Created by potrace 1.11, written by Peter Selinger 2001-2013
</metadata>
<g transform="translate(0.000000,700.000000) scale(0.100000,-0.100000)"
fill="#000000" stroke="none">
<path d="M3278 6995 c-2 -1 -37 -5 -78 -9 -97 -8 -222 -23 -285 -36 -27 -5
-61 -12 -75 -14 -83 -14 -199 -42 -300 -71 -131 -38 -370 -122 -385 -136 -5
-5 -15 -9 -22 -9 -19 0 -296 -139 -410 -206 -797 -465 -1390 -1258 -1617
-2159 -21 -84 -32 -138 -61 -295 -2 -14 -8 -58 -20 -150 -27 -206 -27 -673 -1
-817 2 -10 7 -45 11 -78 4 -32 9 -68 11 -80 2 -11 7 -36 10 -55 51 -320 214
-777 383 -1075 15 -27 38 -68 51 -90 82 -146 295 -434 422 -571 120 -129 283
-280 427 -397 201 -163 554 -371 801 -472 255 -105 588 -199 810 -231 25 -3
54 -7 65 -9 130 -21 270 -30 490 -30 303 0 365 7 770 81 55 10 329 92 427 128
418 152 848 413 1158 703 88 81 241 239 285 293 21 25 40 47 44 50 11 9 135
171 185 244 258 372 471 864 551 1276 52 268 67 409 70 675 1 132 -1 276 -5
320 -17 170 -22 220 -25 225 -2 3 -6 30 -10 60 -9 75 -69 337 -98 435 -259
850 -805 1553 -1559 2008 -317 191 -705 344 -1056 418 -54 11 -106 22 -117 25
-11 2 -45 7 -75 10 -30 3 -58 8 -61 9 -3 2 -35 7 -71 10 -35 4 -78 9 -94 11
-32 5 -541 14 -546 9z"/>
</g>
</svg>
